<svg xmlns="http://www.w3.org/2000/svg" class="icon" viewBox="0 0 1028 1024" width="14" height="14" t="1578391614773" p-id="13928" version="1.1"><path fill="#1a1a1a" d="M 1020.59 650.24 c 1.70667 8.53333 1.70667 18.7733 -1.70667 32.4267 c -1.70667 11.9467 -5.12 25.6 -10.24 37.5467 c -5.12 11.9467 -11.9467 23.8933 -18.7733 34.1333 c -6.82667 10.24 -15.36 17.0667 -23.8933 22.1867 c -8.53333 5.12 -17.0667 6.82667 -22.1867 6.82667 c -6.82667 0 -13.6533 -1.70667 -22.1867 -5.12 c -6.82667 -1.70667 -17.0667 -3.41333 -27.3067 -6.82667 c -10.24 -1.70667 -22.1867 -1.70667 -34.1333 -1.70667 c -11.9467 1.70667 -22.1867 3.41333 -34.1333 6.82667 s -20.48 10.24 -29.0133 18.7733 c -17.0667 18.7733 -27.3067 39.2533 -30.72 63.1467 c -3.41333 23.8933 0 46.08 10.24 66.56 c 6.82667 15.36 6.82667 29.0133 -3.41333 44.3733 c -5.12 5.12 -11.9467 11.9467 -20.48 18.7733 c -10.24 6.82667 -20.48 11.9467 -30.72 17.0667 c -11.9467 5.12 -23.8933 8.53333 -35.84 11.9467 c -11.9467 3.41333 -23.8933 5.12 -32.4267 5.12 c -6.82667 0 -11.9467 -1.70667 -18.7733 -6.82667 c -5.12 -5.12 -10.24 -10.24 -11.9467 -17.0667 h -1.70667 c -8.53333 -22.1867 -22.1867 -42.6667 -40.96 -58.0267 c -18.7733 -17.0667 -42.6667 -23.8933 -68.2667 -23.8933 s -47.7867 8.53333 -68.2667 23.8933 c -20.48 17.0667 -34.1333 35.84 -42.6667 58.0267 c -3.41333 8.53333 -8.53333 15.36 -17.0667 18.7733 c -6.82667 3.41333 -15.36 6.82667 -23.8933 6.82667 c -10.24 0 -22.1867 -1.70667 -34.1333 -5.12 c -13.6533 -3.41333 -25.6 -8.53333 -39.2533 -13.6533 c -11.9467 -5.12 -23.8933 -11.9467 -34.1333 -18.7733 c -10.24 -6.82667 -17.0667 -15.36 -22.1867 -22.1867 c -3.41333 -5.12 -5.12 -11.9467 -6.82667 -18.7733 c 0 -6.82667 1.70667 -17.0667 8.53333 -29.0133 c 8.53333 -17.0667 11.9467 -35.84 8.53333 -58.0267 c -1.70667 -22.1867 -11.9467 -40.96 -27.3067 -59.7333 c -10.24 -10.24 -22.1867 -18.7733 -37.5467 -22.1867 c -15.36 -3.41333 -29.0133 -5.12 -40.96 -3.41333 c -15.36 0 -30.72 3.41333 -47.7867 8.53333 c -10.24 3.41333 -20.48 1.70667 -30.72 -1.70667 c -6.82667 -5.12 -15.36 -11.9467 -22.1867 -22.1867 c -6.82667 -10.24 -13.6533 -22.1867 -18.7733 -35.84 c -5.12 -11.9467 -10.24 -25.6 -11.9467 -39.2533 c -3.41333 -13.6533 -3.41333 -23.8933 -1.70667 -34.1333 c 1.70667 -15.36 10.24 -25.6 22.1867 -30.72 c 22.1867 -8.53333 40.96 -23.8933 59.7333 -42.6667 c 17.0667 -20.48 25.6 -42.6667 25.6 -68.2667 s -8.53333 -47.7867 -25.6 -66.56 s -37.5467 -32.4267 -59.7333 -40.96 c -6.82667 -1.70667 -11.9467 -6.82667 -17.0667 -15.36 c -5.12 -8.53333 -6.82667 -17.0667 -6.82667 -25.6 c 0 -10.24 1.70667 -20.48 5.12 -32.4267 c 3.41333 -11.9467 6.82667 -23.8933 11.9467 -34.1333 c 5.12 -10.24 10.24 -20.48 17.0667 -30.72 c 6.82667 -8.53333 13.6533 -15.36 20.48 -20.48 c 5.12 -3.41333 11.9467 -5.12 17.0667 -5.12 c 5.12 0 11.9467 1.70667 18.7733 5.12 c 22.1867 8.53333 44.3733 11.9467 68.2667 8.53333 c 23.8933 -3.41333 44.3733 -13.6533 63.1467 -30.72 c 8.53333 -8.53333 15.36 -18.7733 18.7733 -32.4267 c 3.41333 -11.9467 6.82667 -25.6 6.82667 -37.5467 c 1.70667 -11.9467 1.70667 -23.8933 0 -34.1333 c -1.70667 -10.24 -1.70667 -17.0667 -3.41333 -22.1867 c -1.70667 -5.12 -3.41333 -10.24 -3.41333 -15.36 c -1.70667 -5.12 0 -10.24 1.70667 -15.36 c 3.41333 -10.24 11.9467 -18.7733 22.1867 -27.3067 c 11.9467 -6.82667 23.8933 -13.6533 37.5467 -18.7733 c 13.6533 -5.12 25.6 -8.53333 39.2533 -11.9467 c 11.9467 -1.70667 20.48 -3.41333 29.0133 -3.41333 c 10.24 0 17.0667 3.41333 22.1867 8.53333 c 5.12 6.82667 8.53333 11.9467 11.9467 18.7733 c 8.53333 20.48 20.48 37.5467 39.2533 52.9067 c 18.7733 15.36 39.2533 22.1867 64.8533 22.1867 s 47.7867 -6.82667 68.2667 -22.1867 c 20.48 -13.6533 34.1333 -32.4267 40.96 -54.6133 c 3.41333 -5.12 6.82667 -11.9467 13.6533 -18.7733 c 6.82667 -3.41333 11.9467 -6.82667 18.7733 -6.82667 c 10.24 0 22.1867 1.70667 34.1333 5.12 c 11.9467 3.41333 23.8933 6.82667 35.84 11.9467 c 11.9467 5.12 22.1867 11.9467 32.4267 20.48 c 10.24 8.53333 17.0667 17.0667 23.8933 25.6 c 3.41333 5.12 5.12 11.9467 3.41333 18.7733 c -1.70667 6.82667 -3.41333 11.9467 -5.12 15.36 c -10.24 20.48 -11.9467 44.3733 -8.53333 66.56 c 3.41333 23.8933 13.6533 44.3733 32.4267 61.44 c 17.0667 17.0667 39.2533 27.3067 64.8533 29.0133 c 25.6 1.70667 49.4933 -1.70667 71.68 -11.9467 c 5.12 -3.41333 13.6533 -5.12 22.1867 -5.12 s 15.36 3.41333 22.1867 10.24 c 10.24 10.24 20.48 25.6 29.0133 46.08 c 8.53333 20.48 13.6533 42.6667 17.0667 63.1467 c 1.70667 11.9467 0 22.1867 -6.82667 29.0133 c -5.12 6.82667 -11.9467 11.9467 -17.0667 13.6533 c -22.1867 8.53333 -42.6667 22.1867 -58.0267 42.6667 c -15.36 20.48 -23.8933 42.6667 -23.8933 68.2667 s 6.82667 46.08 20.48 64.8533 c 13.6533 18.7733 30.72 32.4267 52.9067 39.2533 c 5.12 3.41333 10.24 5.12 13.6533 8.53333 c 5.12 8.53333 10.24 17.0667 13.6533 27.3067 Z m -510.293 97.28 c 32.4267 0 63.1467 -6.82667 93.8667 -18.7733 s 54.6133 -29.0133 76.8 -51.2 c 22.1867 -22.1867 39.2533 -47.7867 51.2 -76.8 c 11.9467 -29.0133 18.7733 -59.7333 18.7733 -92.16 c 0 -32.4267 -6.82667 -63.1467 -18.7733 -92.16 c -11.9467 -29.0133 -29.0133 -54.6133 -51.2 -75.0933 c -22.1867 -22.1867 -47.7867 -39.2533 -76.8 -51.2 c -29.0133 -11.9467 -59.7333 -18.7733 -93.8667 -18.7733 c -32.4267 0 -63.1467 6.82667 -92.16 18.7733 c -29.0133 11.9467 -54.6133 29.0133 -75.0933 51.2 c -22.1867 22.1867 -39.2533 46.08 -51.2 75.0933 c -11.9467 29.0133 -18.7733 59.7333 -18.7733 92.16 c 0 32.4267 6.82667 63.1467 18.7733 92.16 c 11.9467 29.0133 29.0133 54.6133 51.2 76.8 c 22.1867 22.1867 46.08 39.2533 75.0933 51.2 c 29.0133 13.6533 59.7333 18.7733 92.16 18.7733 Z" p-id="13929" /><path fill="#1a1a1a" d="M 512 510.293 m -66.56 0 a 66.56 66.56 0 1 0 133.12 0 a 66.56 66.56 0 1 0 -133.12 0 Z" p-id="13930" /></svg>