<svg xmlns="http://www.w3.org/2000/svg" class="icon" viewBox="0 0 1024 1024" width="32" height="32" t="1578391501897" p-id="10691" version="1.1"><path fill="#333333" d="M 170.667 910.222 V 113.778 h 682.667 v 455.111 h 56.8889 V 56.8889 H 113.778 v 910.222 h 398.222 v -56.8889 Z" p-id="10692" /><path fill="#333333" d="M 227.556 568.889 h 227.556 v 56.8889 H 227.556 v -56.8889 Z m 0 -170.667 h 568.889 v 56.8889 H 227.556 V 398.222 Z m 0 -170.667 h 341.333 v 56.8889 H 227.556 V 227.556 Z" p-id="10693" /><path fill="#333333" d="M 682.667 625.778 c 62.5778 0 113.778 51.2 113.778 113.778 s -51.2 113.778 -113.778 113.778 s -113.778 -51.2 -113.778 -113.778 s 51.2 -113.778 113.778 -113.778 m 0 -56.8889 c -96.7111 0 -170.667 73.9556 -170.667 170.667 s 73.9556 170.667 170.667 170.667 s 170.667 -73.9556 170.667 -170.667 s -73.9556 -170.667 -170.667 -170.667 Z" p-id="10694" /><path fill="#333333" d="M 967.111 967.111 l -164.978 -130.844 M 794.738 800.256 l 211.058 164.068 l -34.8729 44.9422 l -211.115 -164.068 Z" p-id="10695" /></svg>