<svg xmlns="http://www.w3.org/2000/svg" class="icon" viewBox="0 0 1024 1024" width="14" height="14" t="1578391535662" p-id="11407" version="1.1"><path d="M 512 938.667 a 426.667 426.667 0 1 1 0 -853.333 a 426.667 426.667 0 0 1 0 853.333 Z m 0 -56.8889 a 369.778 369.778 0 1 0 0 -739.556 a 369.778 369.778 0 0 0 0 739.556 Z" p-id="11408" /><path d="M 702.009 319.26 c -44.8853 -44.8284 -112.868 -49.7209 -151.666 -10.9227 l -102.969 102.969 c -20.1956 20.1956 -28.2738 48.2987 -25.3156 76.9138 a 26.4533 26.4533 0 0 0 -43.2924 -8.30578 L 310.044 548.58 c -38.7982 38.7413 -33.9058 106.78 10.9227 151.609 s 112.868 49.7209 151.666 10.9227 l 102.969 -102.969 c 20.1387 -20.1956 28.2169 -48.2987 25.3156 -76.9138 a 26.4533 26.4533 0 0 0 43.2356 8.30578 l 68.6649 -68.608 c 38.7982 -38.7982 33.9058 -106.837 -10.9227 -151.666 Z m -26.9084 113.892 L 606.492 501.76 a 26.3964 26.3964 0 0 0 -7.56622 17.3511 a 125.724 125.724 0 0 0 -34.2471 -62.5778 a 26.7378 26.7378 0 0 0 -37.7742 37.7742 c 23.6089 23.552 28.6151 58.4249 10.9227 76.0604 l -102.969 102.969 c -17.6356 17.6356 -52.4516 12.6293 -76.0604 -10.9227 c -23.552 -23.6089 -28.5582 -58.4249 -10.9227 -76.1173 L 416.54 517.689 a 26.3396 26.3396 0 0 0 7.50933 -17.3511 c 4.77867 22.3573 16.0427 44.3733 34.2471 62.5778 a 26.7378 26.7378 0 0 0 37.7742 -37.7742 c -23.6089 -23.552 -28.5582 -58.4249 -10.9227 -76.0604 l 102.969 -102.969 c 17.6356 -17.6356 52.5084 -12.6293 76.0604 10.9227 c 23.6089 23.6089 28.5582 58.4249 10.9227 76.1173 Z" p-id="11409" /></svg>