<svg xmlns="http://www.w3.org/2000/svg" class="icon" viewBox="0 0 1024 1024" width="32" height="32" t="1578391010840" p-id="9037" version="1.1"><path d="M 796.444 967.111 c 0 28.4444 -28.4444 56.8889 -56.8889 56.8889 H 284.444 c -28.4444 0 -56.8889 -28.4444 -56.8889 -56.8889 s 28.4444 -56.8889 56.8889 -56.8889 h 455.111 c 28.4444 0 56.8889 28.4444 56.8889 56.8889 Z M 512 284.444 v 455.111 v -455.111 Z M 284.444 512 v 227.556 v -227.556 Z m 625.778 -455.111 M 910.222 0 H 113.778 C 51.2 0 0 51.2 0 113.778 v 568.889 c 0 62.5778 51.2 113.778 113.778 113.778 h 796.444 c 62.5778 0 113.778 -51.2 113.778 -113.778 V 113.778 c 0 -62.5778 -51.2 -113.778 -113.778 -113.778 Z M 113.778 682.667 V 113.778 h 796.444 v 568.889 h -113.778 V 398.222 c 0 -28.4444 -28.4444 -56.8889 -56.8889 -56.8889 s -56.8889 28.4444 -56.8889 56.8889 v 284.444 h -113.778 V 284.444 c 0 -28.4444 -28.4444 -56.8889 -56.8889 -56.8889 s -56.8889 28.4444 -56.8889 56.8889 v 398.222 H 341.333 V 512 c 0 -28.4444 -28.4444 -56.8889 -56.8889 -56.8889 s -56.8889 28.4444 -56.8889 56.8889 v 170.667 H 113.778 Z" p-id="9038" /></svg>