<svg xmlns="http://www.w3.org/2000/svg" class="icon" viewBox="0 0 1024 1024" width="32" height="32" t="1578381524423" p-id="6499" version="1.1"><path fill="#dbdbdb" d="M 925.1 928.7 H 96.3 V 98.2 h 828.8 v 830.5 Z M 140 885 h 741.3 V 141.9 H 140 V 885 Z m 0 0" p-id="6500" /><path fill="#dbdbdb" d="M 761.6 534.5 H 258.9 c -12.2 0 -21.8 -9.6 -21.8 -21.9 c 0 -12.2 9.6 -21.9 21.8 -21.9 h 502.7 c 12.2 0 21.9 9.6 21.9 21.9 c -0.1 12.2 -9.7 21.9 -21.9 21.9 Z m 0 0" p-id="6501" /><path fill="#dbdbdb" d="M 510.7 776.6 c -12.2 0 -21.9 -9.6 -21.9 -21.9 V 271.3 c 0 -12.2 9.6 -21.9 21.9 -21.9 c 12.2 0 21.9 9.6 21.9 21.9 v 483.4 c -0.1 11.4 -9.7 21.9 -21.9 21.9 Z m 0 0" p-id="6502" /></svg>