<svg xmlns="http://www.w3.org/2000/svg" class="icon" viewBox="0 0 1024 1024" width="16" height="16" t="1566874004187" p-id="2776" version="1.1"><path fill="#515151" d="M 636.173 447.93 c 37.4022 0 67.7014 33.0508 67.7014 73.8445 l 0 172.261 c 0 40.7616 -30.2993 73.8125 -67.7014 73.8125 l -248.217 0 c -37.3702 0 -67.7014 -33.0508 -67.7014 -73.8125 l 0 -172.261 c 0 -40.7616 30.2993 -73.8445 67.7014 -73.8445 L 448.01 447.93 l 0 0 l 127.98 0 l 0 0 L 636.173 447.93 Z M 511.52 512.24 c -35.3225 0 -63.99 27.3877 -63.99 61.2064 c 0 22.5885 17.5333 39.8658 36.6023 50.4881 l 0 79.5396 l 54.8074 0 l 0 -79.5396 c 19.069 -10.6223 36.6023 -27.8996 36.6023 -50.4881 C 575.51 539.628 546.843 512.24 511.52 512.24 Z M 512 320.11 c -60.1506 0 -63.83 50.5841 -63.99 63.99 l 0 63.798 l -64.4059 0 l 0 -57.623 c 0 0 0.031995 -134.379 128.14 -134.379 c 128.14 0 128.14 134.379 128.14 134.379 l 0 57.623 L 575.99 447.898 l 0 -63.798 C 575.862 370.918 572.151 320.11 512 320.11 Z M 512 1024 c -282.74 0 -511.92 -229.18 -511.92 -511.92 s 229.18 -511.92 511.92 -511.92 c 91.1218 0 176.612 23.9643 250.713 65.7177 l 47.6086 -65.8777 L 895.556 224.061 l -223.453 -32.7949 l 52.7598 -73.0126 C 661.513 83.9229 589.108 64.182 512 64.182 c -247.385 0 -447.93 200.545 -447.93 447.93 s 200.545 447.93 447.93 447.93 s 447.93 -200.545 447.93 -447.93 c 0 -60.4066 -12.1261 -117.934 -33.7867 -170.533 l 59.1588 -24.3482 C 1010.07 377.317 1023.92 443.067 1023.92 512.112 C 1023.92 794.82 794.74 1024 512 1024 Z" p-id="2777" /></svg>