<svg xmlns="http://www.w3.org/2000/svg" class="icon" viewBox="0 0 1085 1024" width="16" height="16" t="1566873966785" p-id="1586" version="1.1"><path fill="#515151" d="M 698.098 535.993 C 679.927 528.986 661.305 523.091 642.457 518.197 C 677.669 499.845 708.932 474.04 733.311 442.785 C 770.894 394.624 790.757 336.898 790.757 276.057 C 790.757 202.87 761.865 134.132 709.384 82.4117 C 656.903 30.6914 587.154 2.21738 512.891 2.21738 C 438.627 2.21738 368.879 30.6914 316.398 82.4117 C 263.917 134.132 235.024 202.87 235.024 276.057 C 235.024 337.009 254.888 394.624 292.471 442.785 C 316.962 474.151 348.225 499.845 383.325 518.197 C 346.983 527.54 311.883 540.776 278.363 557.905 C 228.93 583.042 184.236 615.854 145.412 655.451 C 106.587 695.047 74.7598 740.205 50.9459 789.812 C 26.4548 840.754 10.8798 895.032 4.78524 951.202 L 3.88234 959.21 L 9.75118 964.883 C 20.2474 975.115 31.0821 985.015 42.1426 994.469 L 68.4395 1017.05 L 68.7781 1010.93 L 68.7781 1006.37 C 68.7781 764.453 267.754 568.36 513.229 568.36 C 555.101 568.36 595.732 574.033 634.105 584.711 C 653.066 565.913 674.622 549.452 698.098 535.993 L 698.098 535.993 Z M 364.364 422.431 C 324.637 383.279 302.854 331.337 302.854 276.057 C 302.854 220.777 324.75 168.723 364.364 129.683 C 404.092 90.5312 456.798 69.0645 512.891 69.0645 C 568.983 69.0645 621.803 90.6424 661.417 129.683 C 701.145 168.835 722.927 220.777 722.927 276.057 C 722.927 331.337 701.032 383.391 661.417 422.431 C 621.803 461.472 568.983 483.049 512.891 483.049 C 456.798 483.049 404.092 461.472 364.364 422.431 L 364.364 422.431 Z M 1053.95 810.945 L 1053.95 778.912 C 1053.95 763.007 1064.9 749.437 1079.68 745.322 C 1073.7 718.294 1062.87 692.934 1048.2 670.355 C 1034.65 677.696 1017.27 675.805 1005.87 664.571 L 982.849 641.881 C 971.45 630.647 969.418 613.518 976.98 600.171 C 954.069 585.712 928.336 575.034 900.911 569.139 C 896.622 583.709 882.966 594.498 866.827 594.498 L 834.322 594.498 C 818.183 594.498 804.414 583.709 800.238 569.139 C 772.812 575.034 747.08 585.712 724.169 600.171 C 731.618 613.518 729.699 630.647 718.3 641.881 L 695.276 664.571 C 683.877 675.805 666.496 677.807 652.953 670.355 C 638.281 692.934 627.446 718.294 621.464 745.322 C 636.249 749.548 647.197 763.007 647.197 778.912 L 647.197 810.945 C 647.197 826.851 636.249 840.42 621.464 844.536 C 627.446 871.564 638.281 896.923 652.953 919.502 C 666.496 912.161 683.877 914.052 695.276 925.286 L 718.3 947.976 C 729.699 959.21 731.73 976.339 724.169 989.686 C 747.08 1004.15 772.812 1014.82 800.238 1020.72 C 804.527 1006.15 818.183 995.359 834.322 995.359 L 866.827 995.359 C 882.966 995.359 896.735 1006.15 900.911 1020.72 C 928.336 1014.82 954.069 1004.15 976.98 989.686 C 969.531 976.339 971.45 959.21 982.849 947.976 L 1005.87 925.286 C 1017.27 914.052 1034.65 912.05 1048.2 919.502 C 1062.87 896.923 1073.7 871.564 1079.68 844.536 C 1064.9 840.42 1053.95 826.851 1053.95 810.945 L 1053.95 810.945 Z M 850.574 915.609 C 782.97 915.609 728.119 861.553 728.119 794.929 C 728.119 728.304 782.97 674.248 850.574 674.248 C 918.179 674.248 973.03 728.304 973.03 794.929 C 973.03 861.553 918.179 915.609 850.574 915.609 L 850.574 915.609 Z M 768.072 794.929 C 768.072 839.833 805.01 876.235 850.574 876.235 C 896.139 876.235 933.077 839.833 933.077 794.929 C 933.077 750.024 896.139 713.622 850.574 713.622 C 805.01 713.622 768.072 750.024 768.072 794.929 L 768.072 794.929 Z" p-id="1587" /></svg>