<svg xmlns="http://www.w3.org/2000/svg" class="icon" viewBox="0 0 1024 1024" width="16" height="16" t="1566618027369" p-id="1518" version="1.1"><path fill="#707070" d="M 583.168 523.776 L 958.464 148.48 c 18.944 -18.944 18.944 -50.176 0 -69.12 l -2.048 -2.048 c -18.944 -18.944 -50.176 -18.944 -69.12 0 L 512 453.12 L 136.704 77.312 c -18.944 -18.944 -50.176 -18.944 -69.12 0 l -2.048 2.048 c -19.456 18.944 -19.456 50.176 0 69.12 l 375.296 375.296 L 65.536 899.072 c -18.944 18.944 -18.944 50.176 0 69.12 l 2.048 2.048 c 18.944 18.944 50.176 18.944 69.12 0 L 512 594.944 L 887.296 970.24 c 18.944 18.944 50.176 18.944 69.12 0 l 2.048 -2.048 c 18.944 -18.944 18.944 -50.176 0 -69.12 L 583.168 523.776 Z" p-id="1519" /></svg>