<svg xmlns="http://www.w3.org/2000/svg" class="icon" viewBox="0 0 1024 1024" width="32" height="32" t="1577779784702" p-id="2212" version="1.1"><path fill="#ffffff" d="M 512 481.28 c 92.9792 0 168.653 -75.6736 168.653 -168.653 c 0 -92.9792 -75.6736 -168.653 -168.653 -168.653 c -92.9792 0 -168.653 75.6736 -168.653 168.653 c 0 92.9792 75.6736 168.653 168.653 168.653 Z M 800.256 684.134 c -15.7696 -37.2736 -38.4 -70.656 -67.1744 -99.4304 c -28.7744 -28.7744 -62.2592 -51.4048 -99.4304 -67.1744 c -38.6048 -16.384 -79.4624 -24.6784 -121.549 -24.6784 s -82.944 8.2944 -121.549 24.6784 c -37.2736 15.7696 -70.656 38.4 -99.4304 67.1744 c -28.7744 28.7744 -51.4048 62.2592 -67.1744 99.4304 c -16.384 38.6048 -24.6784 79.4624 -24.6784 121.549 v 33.3824 c 0 22.6304 18.3296 40.96 40.96 40.96 h 543.949 c 22.6304 0 40.96 -18.3296 40.96 -40.96 v -33.3824 c -0.2048 -42.0864 -8.4992 -82.944 -24.8832 -121.549 Z" p-id="2213" /></svg>