<svg xmlns="http://www.w3.org/2000/svg" class="icon" viewBox="0 0 1024 1024" width="32" height="32" t="1577779886565" p-id="3023" version="1.1"><path fill="#ffffff" d="M 462.4 381 c -37.3 37.3 -37.2 97.6 0 134.8 c 37.2 37.3 97.6 37.3 134.7 0 c 37.3 -37.2 37.3 -97.6 0 -134.8 c -37 -37.3 -97.4 -37.3 -134.7 0 Z" p-id="3024" /><path fill="#ffffff" d="M 877.4 178.7 L 526.7 66 c -4 -1.4 -9.3 -2 -14.7 -2 s -10.7 0.7 -14.7 2 L 146.7 178.7 c -8.1 2.7 -14.7 12.1 -14.7 20.6 v 489.9 c 0 8.6 5.6 19.9 12.3 25.2 L 499.7 956 c 3.4 2.6 7.8 4 12.3 4 c 4.5 0 9 -1.4 12.3 -4 l 355.5 -241.6 c 6.7 -5.3 12.3 -16.6 12.3 -25.2 V 199.4 c 0 -8.6 -6.6 -17.9 -14.7 -20.7 Z M 651.2 569.9 c -57.7 57.8 -146.4 65.8 -212.6 24 l -71.3 71.3 c -15.2 15.2 -40.1 15.2 -55.4 0 c -14.4 -14.4 -14.4 -38.2 0 -52.6 l 72.7 -72.8 c -42.1 -66.7 -33.7 -156.3 25.1 -214 c 67.2 -66.1 174.8 -65.6 241.5 1.1 c 67 67.2 67 175.8 0 243 Z" p-id="3025" /></svg>