<svg xmlns="http://www.w3.org/2000/svg" class="icon" viewBox="0 0 1024 1024" width="32" height="32" t="1577780265305" p-id="4077" version="1.1"><path fill="#ffffff" d="M 1012.55 612.027 a 512.869 512.869 0 0 0 0.579388 -197.102 L 910.467 378.396 a 419.56 419.56 0 0 0 -21.7409 -52.0898 l 46.9029 -98.9651 A 513.173 513.173 0 0 0 796.659 88.2878 l -100.179 47.6202 a 414.097 414.097 0 0 0 -50.2413 -20.5269 L 609.075 10.8428 a 514.331 514.331 0 0 0 -197.102 0.579388 l -37.6878 105.973 a 410.759 410.759 0 0 0 -46.9029 19.7544 L 226.237 89.0603 a 512.786 512.786 0 0 0 -139.522 140.709 L 135.191 331.576 a 412.607 412.607 0 0 0 -18.3749 44.7509 L 11.036 413.849 a 514.994 514.994 0 0 0 0.579389 199.199 l 105.228 37.4119 A 416.222 416.222 0 0 0 135.191 694.99 l -47.7306 100.4 a 513.173 513.173 0 0 0 141.205 141.178 l 99.1582 -47.1512 a 412.58 412.58 0 0 0 46.3235 19.4785 l 36.805 103.49 a 513.559 513.559 0 0 0 199.199 0.579389 l 36.2808 -102.083 a 412.883 412.883 0 0 0 49.6619 -20.251 l 98.1925 46.6546 a 513.173 513.173 0 0 0 140.709 -139.522 l -46.4063 -97.5304 a 417.711 417.711 0 0 0 21.6581 -51.8691 Z M 513.173 664.917 a 151.745 151.745 0 1 1 151.745 -151.745 a 151.745 151.745 0 0 1 -151.745 151.745 Z" p-id="4078" /></svg>