<svg xmlns="http://www.w3.org/2000/svg" class="icon" viewBox="0 0 1024 1024" width="32" height="32" t="1578282141516" p-id="3559" version="1.1"><path fill="#ffffff" d="M 906.667 938.667 h -789.333 A 32 32 0 0 1 85.3333 906.667 v -789.333 a 32 32 0 0 1 64 0 V 874.667 h 757.333 a 32 32 0 0 1 0 64 Z M 853.333 832 h -64 a 42.6667 42.6667 0 0 1 -42.6667 -42.6667 V 320 a 42.6667 42.6667 0 0 1 42.6667 -42.6667 h 64 a 42.6667 42.6667 0 0 1 42.6667 42.6667 v 469.333 a 42.6667 42.6667 0 0 1 -42.6667 42.6667 Z m -256 0 h -64 a 42.6667 42.6667 0 0 1 -42.6667 -42.6667 V 405.333 a 42.6667 42.6667 0 0 1 42.6667 -42.6667 h 64 a 42.6667 42.6667 0 0 1 42.6667 42.6667 v 384 a 42.6667 42.6667 0 0 1 -42.6667 42.6667 Z m -256 0 h -64 a 42.6667 42.6667 0 0 1 -42.6667 -42.6667 V 234.667 a 42.6667 42.6667 0 0 1 42.6667 -42.6667 h 64 a 42.6667 42.6667 0 0 1 42.6667 42.6667 v 554.667 a 42.6667 42.6667 0 0 1 -42.6667 42.6667 Z" p-id="3560" /></svg>