<svg xmlns="http://www.w3.org/2000/svg" class="icon" viewBox="0 0 1024 1024" width="16" height="16" t="1566461793072" p-id="22185" version="1.1"><path fill="#ffffff" d="M 970.745 459.367 L 566.614 459.367 L 566.614 55.251 C 566.614 25.842 542.771 2 513.361 2 c -29.411 0 -53.253 23.841 -53.253 53.251 l 0 404.116 L 55.975 459.367 c -29.411 0 -53.253 23.841 -53.253 53.25 c 0 29.41 23.842 53.253 53.253 53.253 l 404.133 0 l 0 404.115 c 0 29.407 23.842 53.249 53.253 53.249 c 29.41 0 53.253 -23.842 53.253 -53.249 L 566.614 565.87 l 404.131 0 c 29.413 0 53.255 -23.843 53.255 -53.253 C 1024 483.208 1000.16 459.367 970.745 459.367 Z" p-id="22186" /></svg>