<svg xmlns="http://www.w3.org/2000/svg" class="icon" viewBox="0 0 1024 1024" width="16" height="16" t="1566462265560" p-id="23191" version="1.1"><path fill="#ffffff" d="M 877.753 227.711 c -7.21943 -10.2433 -16.949 -18.7818 -29.1857 -25.6134 c -12.2408 -6.8275 -27.7746 -10.2433 -46.6034 -10.2433 l -43.3053 0 c -15.0641 0 -29.1857 -0.340761 -42.3659 -1.02638 l 0 -63.5135 c 0 -17.7595 -4.23444 -32.9576 -12.7064 -45.5893 c -8.47604 -12.6358 -23.6936 -18.9537 -45.664 -18.9537 L 363.253 62.7716 c -16.3258 0 -30.1292 6.31789 -41.4296 18.9537 c -11.2963 12.6317 -16.9449 27.8298 -16.9449 45.5893 l 0 62.4954 l -83.7873 0 c -16.3217 0 -30.4382 3.07094 -42.3659 9.21692 c -11.9236 6.14598 -21.6532 13.8269 -29.1847 23.051 c -7.53256 9.21692 -13.1802 19.2914 -16.949 30.2193 c -3.76372 10.9279 -5.64456 20.8345 -5.64456 29.7096 c 0 17.7554 0.313132 28.3435 0.940418 31.7583 c 0 2.73018 0.317225 4.43808 0.940418 5.12369 l 58.3704 0 l 0 527.597 c 0 17.7595 2.98089 33.6391 8.94267 47.6421 c 5.96178 13.9988 14.1247 25.9541 24.4806 35.8556 c 10.3569 9.90253 22.7532 17.5835 37.1839 23.051 c 14.4378 5.46036 29.812 8.19054 46.1296 8.19054 l 419.885 0 c 17.5753 0 33.1101 -2.89903 46.6034 -8.70322 c 13.4943 -5.80931 24.9513 -13.4943 34.3636 -23.051 c 9.41646 -9.56177 16.6349 -20.6616 21.6532 -33.2984 c 5.02136 -12.6317 7.53256 -25.7853 7.53256 -39.4433 L 833.973 318.89 l 62.1341 0 l 0 -6.14598 c 0 -2.04866 0.156566 -4.43808 0.469698 -7.17235 c 0.317225 -2.73427 0.473791 -6.49083 0.473791 -11.2686 c 0 -10.2464 -1.41421 -21.34 -4.23853 -33.2943 C 889.989 249.055 884.972 237.955 877.753 227.711 Z M 363.253 127.317 l 294.668 0 l 0 64.5399 L 363.253 191.857 L 363.253 127.317 Z M 364.19 798.341 c 0 28.0028 -10.0427 42.0016 -30.1251 42.0016 c -10.67 0 -18.045 -3.4117 -22.1229 -10.2433 c -4.08095 -6.8275 -6.11835 -17.4146 -6.11835 -31.7583 L 305.823 322.991 l 58.3663 0 L 364.19 798.341 Z M 539.301 798.341 c 0 14.3437 -1.88391 24.7589 -5.64865 31.2456 c -3.76781 6.48674 -10.9872 9.73369 -21.6532 9.73369 c -20.7127 0 -31.0696 -13.6581 -31.0696 -40.9793 L 480.929 322.991 l 58.3704 0 L 539.3 798.341 Z M 717.232 796.288 c 0 14.3437 -1.87981 24.7589 -5.64865 31.2456 c -3.76372 6.4939 -11.2922 9.73778 -22.5926 9.73778 c -20.7127 0 -31.0696 -13.6622 -31.0696 -40.9834 L 657.921 322.991 l 59.3108 0 L 717.232 796.288 Z" p-id="23192" /></svg>